Coordinates
version=1
nRows=16
nColumns=36
inDegrees=yes

Units are S.I. units (second, meters, Newtons, ...)
If the header above contains a line with 'inDegrees', this indicates whether rotational values are in degrees (yes) or radians (no).

endheader
time	pelvis_tilt	pelvis_list	pelvis_rotation	pelvis_tx	pelvis_ty	pelvis_tz	hip_flexion_r	hip_adduction_r	hip_rotation_r	knee_angle_r	knee_angle_r_beta	ankle_angle_r	subtalar_angle_r	mtp_angle_r	hip_flexion_l	hip_adduction_l	hip_rotation_l	knee_angle_l	knee_angle_l_beta	ankle_angle_l	subtalar_angle_l	mtp_angle_l	lumbar_extension	lumbar_bending	lumbar_rotation	arm_flex_r	arm_add_r	arm_rot_r	elbow_flex_r	pro_sup_r	arm_flex_l	arm_add_l	arm_rot_l	elbow_flex_l	pro_sup_l
      2.13333330	      1.66254213	      5.06430394	      3.61825651	      0.09345820	      0.91518149	     -0.21443451	     10.18186049	     -0.20279028	      1.68315460	     15.39867647	      0.26875760	     11.99059778	     -6.41165322	     -7.49999987	     29.62877328	      4.75812022	      5.82602104	     58.63632113	      1.02339686	      7.61036715	    -15.05685253	     -7.49999987	    -22.36978775	     -6.87409099	     -5.25902469	     44.20282463	      0.51706630	     69.25727410	    126.65691692	    109.91846358	     58.58433925	      1.05117428	     66.96346678	    124.11466601	    106.52667742
      2.15000000	      2.06735040	      4.70932997	      3.05216140	      0.09928132	      0.91289252	     -0.21834978	      8.70987094	      0.12640099	      1.53642735	     13.88857914	      0.24240143	     11.82940143	     -6.06589320	     -7.49999987	     27.96901684	      4.48895471	      6.14386178	     57.73469224	      1.00766047	      7.71569892	    -14.79376938	     -7.49999987	    -21.52359839	     -6.75770525	     -5.21515513	     43.54492065	      0.93857723	     69.28949796	    127.25730838	    107.51642060	     57.69402903	      1.06770182	     67.12727520	    123.79878468	    104.48561704
      2.16666670	      2.37541772	      4.48713218	      2.83010617	      0.09938314	      0.92323500	     -0.21891889	      7.43958169	      0.20989893	      0.72169072	     12.40963147	      0.21658893	     11.75125183	     -4.50637555	     -7.49999987	     26.44669415	      4.41406725	      6.52607896	     55.84284908	      0.97464158	      7.31432394	    -14.19181854	     -7.49999987	    -21.04658732	     -6.70105909	     -5.13215067	     42.65074795	      0.79214544	     69.11899608	    127.48110563	    109.45016190	     56.67920604	      1.05417549	     67.50594825	    123.13728541	    106.07403353
      2.18333330	      2.66010789	      4.27218167	      2.53755116	      0.09886878	      0.92646646	     -0.21951408	      6.48278033	      0.34937686	      0.53655718	     11.32345408	      0.19763156	     11.38234965	     -3.66036181	     -7.49999987	     25.18054109	      4.25205827	      6.71341776	     53.90590655	      0.94083556	      6.73446529	    -13.76977124	     -7.49999987	    -20.89923448	     -6.75847158	     -4.62531453	     42.29999727	      0.47123483	     68.65168652	    128.03878830	    109.15242771	     56.37995492	      1.47982649	     67.68584387	    122.76780572	    105.41562082
      2.20000000	      2.80825806	      4.02096800	      2.22179322	      0.10526579	      0.92434425	     -0.22385600	      5.84476099	      0.56538575	      0.45591928	     10.59203372	      0.18486586	     11.26891117	     -3.24927345	     -7.49999987	     24.23913906	      4.10281565	      6.88198739	     52.55126680	      0.91719263	      6.62381082	    -13.45922301	     -7.49999987	    -20.46388056	     -6.57542465	     -4.42930846	     42.08190187	      0.37073026	     68.58364032	    128.85089553	    109.11962956	     55.67275858	      1.66556983	     67.18246640	    122.90737346	    105.48126923
      2.21666670	      3.37080776	      3.79469717	      2.02107712	      0.10477855	      0.92160333	     -0.22358398	      5.03703302	      0.74646076	      0.10089905	     10.25295769	      0.17894787	     11.74740785	     -2.50163260	     -7.49999987	     23.18719846	      3.97255320	      7.12660232	     51.79470687	      0.90398817	      7.21488603	    -13.11368842	     -7.49999987	    -20.48893967	     -6.50481283	     -4.21859023	     42.15586792	      0.54223659	     67.78623213	    129.14257925	    108.29763666	     55.79855834	      2.30022442	     66.17374675	    122.87783672	    105.16974310
      2.23333330	      3.69996301	      3.58767491	      1.95704541	      0.10473889	      0.92554820	     -0.22407371	      4.45042741	      0.84912073	     -0.25574180	      9.93109673	      0.17333034	     11.87598111	     -1.98981157	     -7.49999987	     22.46601523	      3.79824106	      7.24845462	     50.73591200	      0.88550871	      7.77742938	    -12.90467294	     -7.49999987	    -20.34550920	     -6.40764100	     -4.01437790	     42.20367705	      0.57171718	     67.85258731	    129.50897957	    106.70153793	     55.63655602	      2.71406542	     66.16459328	    122.70993502	    104.03482176
      2.25000000	      3.99049612	      3.44128663	      2.05950110	      0.10416018	      0.92576986	     -0.22470464	      4.04758721	      0.90582253	     -0.77300114	      9.77241046	      0.17056074	     11.94405883	     -1.33392609	     -7.49999987	     21.93362086	      3.63727842	      7.35225333	     49.69998118	      0.86742831	      8.55050111	    -12.95377761	     -7.49999987	    -20.28605593	     -6.44144749	     -3.49295272	     41.90706284	      0.20926102	     67.16195322	    129.92648950	    107.26589250	     55.33862370	      2.90362970	     65.93805799	    122.26792720	    104.22209283
      2.26666670	      4.21016233	      3.28479296	      2.12007312	      0.10887635	      0.92641204	     -0.22136541	      3.47682992	      1.07871331	     -0.85478742	      9.35854632	      0.16333745	     11.88937682	     -1.36343739	     -7.49999987	     21.05570927	      3.42318688	      7.60704448	     48.14194416	      0.84023543	      9.33240840	    -13.06326272	     -7.49999987	    -19.84684279	     -6.51177647	     -3.05901335	     41.46852847	      0.18022549	     67.20209756	    129.86333917	    107.24848125	     54.62642621	      2.69010565	     65.74206248	    122.17502765	    104.22837645
      2.28333330	      4.92983891	      3.23443783	      2.03003880	      0.10786878	      0.92960258	     -0.22132373	      2.41040209	      1.14364416	     -0.90870363	      8.89253689	      0.15520405	     11.91477329	     -1.13347966	     -7.49999987	     19.52166672	      3.25270611	      7.69419536	     46.54466261	      0.81235761	      9.29059416	    -12.82941494	     -7.49999987	    -20.18014008	     -6.63437544	     -2.61186234	     41.36144469	      0.09618755	     66.91568891	    129.63419718	    107.17640674	     54.30927716	      2.55373259	     65.37169599	    122.13628120	    103.63417534
      2.30000000	      5.42710359	      3.24245874	      1.82628180	      0.11388763	      0.93066290	     -0.22516730	      1.34801005	      1.08368556	     -1.01150681	      8.19926229	      0.14310412	     11.97898827	     -0.68080029	     -7.49999987	     17.87140313	      3.23202207	      7.74944838	     44.71029047	      0.78034178	      9.37081068	    -12.26066332	     -7.49999987	    -19.92207842	     -6.75455263	     -2.16452703	     41.25408224	     -0.17970154	     66.83177652	    129.61707665	    107.06775825	     53.45389860	      2.47651504	     64.50204566	    122.07219205	    103.66120987
      2.31666670	      5.94841810	      3.21870745	      1.67697290	      0.11806877	      0.92758826	     -0.22123978	      0.22223615	      1.18431492	     -0.95513823	      7.45328928	      0.13008444	     11.98497684	     -0.73788144	     -7.49999987	     16.16924256	      3.09242035	      7.92685937	     43.14634711	      0.75304582	      9.40430501	    -11.95223806	     -7.49999987	    -19.58770632	     -6.91516382	     -1.75552856	     41.05541877	     -0.08966855	     66.64927804	    129.62620906	    106.03486639	     52.88398334	      2.33916137	     64.09255195	    122.45871637	    102.76638507
      2.33333330	      6.36482048	      3.09153018	      1.39439833	      0.11831620	      0.93039868	     -0.22056444	     -0.67643299	      1.33674523	     -1.19993299	      6.94700636	      0.12124813	     12.03014559	     -0.10851049	     -7.49999987	     14.60456431	      2.85713252	      7.97281891	     41.53322903	      0.72489160	      9.24352117	    -11.29226357	     -7.49999987	    -19.21803323	     -6.91160555	     -1.12814324	     40.89980127	      0.26193551	     66.73044314	    129.25794996	    106.55979808	     52.06010990	      2.26491458	     64.19011938	    123.38302434	    103.30663322
      2.35000000	      6.90490910	      2.89984686	      1.00200386	      0.12187352	      0.93541846	     -0.21759073	     -1.86463215	      1.61863117	     -1.02970198	      6.23568910	      0.10883331	     11.83869701	      0.07004600	     -7.49999987	     12.52147309	      2.47570019	      7.84486312	     39.12357549	      0.68283521	      8.83017091	    -10.45867630	     -7.49999987	    -19.02018776	     -7.00383418	     -0.35312044	     40.32215109	      0.60850906	     67.11599780	    128.85426376	    104.83303865	     51.17432393	      1.92217461	     64.97954705	    124.29039756	    101.90468084
      2.36666670	      7.41309825	      2.63144467	      0.69027625	      0.12230204	      0.93587536	     -0.21743569	     -2.90389978	      1.96249398	     -0.98368632	      5.72898455	      0.09998964	     11.68631968	      0.37276366	     -7.49999987	     10.54217116	      2.06485931	      7.69830251	     36.78399826	      0.64200188	      8.29610476	     -9.82619372	     -7.49999987	    -18.81593909	     -7.00822856	      0.07043486	     40.04363571	      0.89095583	     67.07741838	    128.54218770	    105.32565707	     50.51470193	      1.84419827	     65.04680580	    124.78945961	    102.14962209
      2.38333330	      7.46029696	      2.26616474	      0.27965872	      0.12223244	      0.93425310	     -0.21695147	     -3.22798501	      2.37806050	     -0.82548886	      5.51993161	      0.09634098	     11.42761503	      0.27585250	     -7.49999987	      9.30068447	      1.58263482	      7.41745782	     34.93767565	      0.60977747	      8.00068525	     -8.87577526	     -7.49999987	    -18.22014795	     -6.90430159	      0.67359873	     39.94783838	      0.96344484	     67.20290038	    128.45196753	    105.36825144	     50.15708972	      1.87572985	     65.10336217	    125.04621992	    102.25027345
